<mxfile host="app.diagrams.net" modified="2024-06-07T02:42:42.599Z" agent="Mozilla/5.0 (Windows NT 10.0; Win64; x64) AppleWebKit/537.36 (KHTML, like Gecko) Chrome/125.0.0.0 Safari/537.36" version="24.2.5" etag="65oMThO_3hjRvQ3sNJyv" type="github">
  <diagram name="Page-1" id="UO4i1Ba0TmrfY3dvPFhu">
    <mxGraphModel>
      <root>
        <mxCell id="0" />
        <mxCell id="1" parent="0" />
      </root>
    </mxGraphModel>
  </diagram>
</mxfile>
